<svg xmlns="http://www.w3.org/2000/svg" xmlns:xlink="http://www.w3.org/1999/xlink" width="500" zoomAndPan="magnify" viewBox="0 0 375 374.999991" height="500" preserveAspectRatio="xMidYMid meet" version="1.0"><defs><g/><clipPath id="d326463dd1"><path d="M 84.792969 104.871094 L 213.792969 104.871094 L 213.792969 122.121094 L 84.792969 122.121094 Z M 84.792969 104.871094 " clip-rule="nonzero"/></clipPath><clipPath id="6fe162d439"><path d="M 121.621094 114.214844 L 135.121094 114.214844 L 135.121094 216.964844 L 121.621094 216.964844 Z M 121.621094 114.214844 " clip-rule="nonzero"/></clipPath><clipPath id="e819057de1"><path d="M 204.503906 104.8125 L 217.253906 104.8125 L 217.253906 155.8125 L 204.503906 155.8125 Z M 204.503906 104.8125 " clip-rule="nonzero"/></clipPath><clipPath id="71eae42a27"><path d="M 146.140625 128.589844 L 209.890625 128.589844 L 209.890625 143.589844 L 146.140625 143.589844 Z M 146.140625 128.589844 " clip-rule="nonzero"/></clipPath><clipPath id="5bfb431ae5"><path d="M 146.507812 136.09375 L 160.007812 136.09375 L 160.007812 205.84375 L 146.507812 205.84375 Z M 146.507812 136.09375 " clip-rule="nonzero"/></clipPath><clipPath id="8fff66fd17"><path d="M 146.140625 203.828125 L 209.890625 203.828125 L 209.890625 217.328125 L 146.140625 217.328125 Z M 146.140625 203.828125 " clip-rule="nonzero"/></clipPath><clipPath id="7aa9a74aa7"><path d="M 36.269531 37.5 L 269.519531 37.5 L 269.519531 270.75 L 36.269531 270.75 Z M 36.269531 37.5 " clip-rule="nonzero"/></clipPath><clipPath id="fabce9c3a4"><path d="M 33.558594 34.789062 L 272.808594 34.789062 L 272.808594 274.039062 L 33.558594 274.039062 Z M 33.558594 34.789062 " clip-rule="nonzero"/></clipPath></defs><g fill="#000000" fill-opacity="1"><g transform="translate(81.249042, 217.33197)"><g><path d="M 94.546875 -95.785156 L 94.546875 -106.597656 L 5.253906 -106.597656 L 5.253906 -95.785156 L 43.257812 -95.785156 L 43.257812 0 L 56.542969 0 L 56.542969 -95.785156 Z M 94.546875 -95.785156 "/></g></g></g><g clip-path="url(#d326463dd1)"><path fill="#000000" d="M 84.792969 104.871094 L 213.792969 104.871094 L 213.792969 122.121094 L 84.792969 122.121094 L 84.792969 104.871094 " fill-opacity="1" fill-rule="nonzero"/></g><g clip-path="url(#6fe162d439)"><path fill="#000000" d="M 135.121094 114.21875 L 135.121094 216.960938 L 121.621094 216.960938 L 121.621094 114.21875 L 135.121094 114.21875 " fill-opacity="1" fill-rule="nonzero"/></g><g clip-path="url(#e819057de1)"><path fill="#000000" d="M 204.503906 155.800781 L 204.503906 104.824219 L 217.253906 104.824219 L 217.253906 155.800781 L 204.503906 155.800781 " fill-opacity="1" fill-rule="nonzero"/></g><g clip-path="url(#71eae42a27)"><path fill="#000000" d="M 146.148438 128.589844 L 209.882812 128.589844 L 209.882812 143.589844 L 146.148438 143.589844 L 146.148438 128.589844 " fill-opacity="1" fill-rule="nonzero"/></g><g clip-path="url(#5bfb431ae5)"><path fill="#000000" d="M 160.007812 136.121094 L 160.007812 205.816406 L 146.507812 205.816406 L 146.507812 136.121094 L 160.007812 136.121094 " fill-opacity="1" fill-rule="nonzero"/></g><g clip-path="url(#8fff66fd17)"><path fill="#000000" d="M 146.148438 203.828125 L 209.886719 203.828125 L 209.886719 217.328125 L 146.148438 217.328125 L 146.148438 203.828125 " fill-opacity="1" fill-rule="nonzero"/></g><g clip-path="url(#7aa9a74aa7)"><path fill="#000000" d="M 152.894531 270.75 C 88.464844 270.75 36.269531 218.195312 36.269531 154.125 C 36.269531 90.054688 88.464844 37.5 152.894531 37.5 C 217.328125 37.5 269.519531 89.691406 269.519531 154.125 C 269.519531 218.558594 216.964844 270.75 152.894531 270.75 Z M 152.894531 44.699219 C 92.421875 44.699219 43.46875 93.652344 43.46875 154.125 C 43.46875 214.597656 92.421875 263.550781 152.894531 263.550781 C 213.367188 263.550781 262.320312 214.597656 262.320312 154.125 C 262.320312 93.652344 213.007812 44.699219 152.894531 44.699219 Z M 152.894531 44.699219 " fill-opacity="1" fill-rule="nonzero"/></g><g clip-path="url(#fabce9c3a4)"><path fill="#000000" d="M 153.183594 274.039062 C 87.09375 274.039062 33.558594 220.132812 33.558594 154.414062 C 33.558594 88.695312 87.09375 34.789062 153.183594 34.789062 C 219.273438 34.789062 272.808594 88.324219 272.808594 154.414062 C 272.808594 220.503906 218.902344 274.039062 153.183594 274.039062 Z M 153.183594 42.171875 C 91.15625 42.171875 40.941406 92.386719 40.941406 154.414062 C 40.941406 216.441406 91.15625 266.65625 153.183594 266.65625 C 215.210938 266.65625 265.425781 216.441406 265.425781 154.414062 C 265.425781 92.386719 214.84375 42.171875 153.183594 42.171875 Z M 153.183594 42.171875 " fill-opacity="1" fill-rule="nonzero"/></g></svg>