<svg xmlns="http://www.w3.org/2000/svg" xmlns:xlink="http://www.w3.org/1999/xlink" width="500" zoomAndPan="magnify" viewBox="0 0 375 374.999991" height="500" preserveAspectRatio="xMidYMid meet" version="1.0"><defs><filter x="0%" y="0%" width="100%" height="100%" id="777728b29b"><feColorMatrix values="0 0 0 0 1 0 0 0 0 1 0 0 0 0 1 0 0 0 1 0" color-interpolation-filters="sRGB"/></filter><g/><clipPath id="c8157d075a"><path d="M 36.269531 37.5 L 269.519531 37.5 L 269.519531 270.75 L 36.269531 270.75 Z M 36.269531 37.5 " clip-rule="nonzero"/></clipPath><clipPath id="8aa068affa"><path d="M 33.558594 34.789062 L 272.808594 34.789062 L 272.808594 274.039062 L 33.558594 274.039062 Z M 33.558594 34.789062 " clip-rule="nonzero"/></clipPath><clipPath id="fbccfaab2e"><path d="M 84.792969 104.871094 L 213.792969 104.871094 L 213.792969 122.121094 L 84.792969 122.121094 Z M 84.792969 104.871094 " clip-rule="nonzero"/></clipPath><clipPath id="026722fc95"><path d="M 121.621094 114.214844 L 135.121094 114.214844 L 135.121094 216.964844 L 121.621094 216.964844 Z M 121.621094 114.214844 " clip-rule="nonzero"/></clipPath><clipPath id="2c33cb7993"><path d="M 204.503906 104.8125 L 217.253906 104.8125 L 217.253906 155.8125 L 204.503906 155.8125 Z M 204.503906 104.8125 " clip-rule="nonzero"/></clipPath><clipPath id="202905f2be"><path d="M 146.140625 128.589844 L 209.890625 128.589844 L 209.890625 143.589844 L 146.140625 143.589844 Z M 146.140625 128.589844 " clip-rule="nonzero"/></clipPath><clipPath id="7dc6ae49dd"><path d="M 145.363281 128.59375 L 161.113281 128.59375 L 161.113281 217.09375 L 145.363281 217.09375 Z M 145.363281 128.59375 " clip-rule="nonzero"/></clipPath><clipPath id="55e2fa0dff"><path d="M 146.140625 203.703125 L 209.890625 203.703125 L 209.890625 217.203125 L 146.140625 217.203125 Z M 146.140625 203.703125 " clip-rule="nonzero"/></clipPath><clipPath id="12a63fdd12"><path d="M 146.140625 212.632812 L 149.890625 212.632812 L 149.890625 216.382812 L 146.140625 216.382812 Z M 146.140625 212.632812 " clip-rule="nonzero"/></clipPath><clipPath id="12213f4d23"><path d="M 132.507812 210.417969 L 150.507812 210.417969 L 150.507812 227.667969 L 132.507812 227.667969 Z M 132.507812 210.417969 " clip-rule="nonzero"/></clipPath><clipPath id="f8eb6191aa"><path d="M 133.210938 211.726562 L 149.710938 211.726562 L 149.710938 227.476562 L 133.210938 227.476562 Z M 133.210938 211.726562 " clip-rule="nonzero"/></clipPath><clipPath id="94b58b8d89"><path d="M 108.148438 217.132812 L 220.648438 217.132812 L 220.648438 228.382812 L 108.148438 228.382812 Z M 108.148438 217.132812 " clip-rule="nonzero"/></clipPath><mask id="ca7840b087"><g filter="url(#777728b29b)"><rect x="-37.5" width="450" fill="#000000" y="-37.499999" height="449.999989" fill-opacity="0.5882"/></g></mask><clipPath id="08b89291c9"><path d="M 1.050781 0.28125 L 231.300781 0.28125 L 231.300781 230.53125 L 1.050781 230.53125 Z M 1.050781 0.28125 " clip-rule="nonzero"/></clipPath><clipPath id="cc5933a741"><rect x="0" width="232" y="0" height="231"/></clipPath></defs><g clip-path="url(#c8157d075a)"><path fill="#000000" d="M 152.894531 270.75 C 88.464844 270.75 36.269531 218.195312 36.269531 154.125 C 36.269531 90.054688 88.464844 37.5 152.894531 37.5 C 217.328125 37.5 269.519531 89.691406 269.519531 154.125 C 269.519531 218.558594 216.964844 270.75 152.894531 270.75 Z M 152.894531 44.699219 C 92.421875 44.699219 43.46875 93.652344 43.46875 154.125 C 43.46875 214.597656 92.421875 263.550781 152.894531 263.550781 C 213.367188 263.550781 262.320312 214.597656 262.320312 154.125 C 262.320312 93.652344 213.007812 44.699219 152.894531 44.699219 Z M 152.894531 44.699219 " fill-opacity="1" fill-rule="nonzero"/></g><g clip-path="url(#8aa068affa)"><path fill="#000000" d="M 153.183594 274.039062 C 87.09375 274.039062 33.558594 220.132812 33.558594 154.414062 C 33.558594 88.695312 87.09375 34.789062 153.183594 34.789062 C 219.273438 34.789062 272.808594 88.324219 272.808594 154.414062 C 272.808594 220.503906 218.902344 274.039062 153.183594 274.039062 Z M 153.183594 42.171875 C 91.15625 42.171875 40.941406 92.386719 40.941406 154.414062 C 40.941406 216.441406 91.15625 266.65625 153.183594 266.65625 C 215.210938 266.65625 265.425781 216.441406 265.425781 154.414062 C 265.425781 92.386719 214.84375 42.171875 153.183594 42.171875 Z M 153.183594 42.171875 " fill-opacity="1" fill-rule="nonzero"/></g><g fill="#000000" fill-opacity="1"><g transform="translate(81.249042, 217.33197)"><g><path d="M 94.546875 -95.785156 L 94.546875 -106.597656 L 5.253906 -106.597656 L 5.253906 -95.785156 L 43.257812 -95.785156 L 43.257812 0 L 56.542969 0 L 56.542969 -95.785156 Z M 94.546875 -95.785156 "/></g></g></g><g clip-path="url(#fbccfaab2e)"><path fill="#000000" d="M 86.292969 104.871094 L 212.292969 104.871094 C 212.691406 104.871094 213.074219 105.03125 213.355469 105.3125 C 213.636719 105.597656 213.792969 105.980469 213.792969 106.378906 L 213.792969 120.617188 C 213.792969 121.015625 213.636719 121.398438 213.355469 121.683594 C 213.074219 121.964844 212.691406 122.121094 212.292969 122.121094 L 86.292969 122.121094 C 85.894531 122.121094 85.515625 121.964844 85.234375 121.683594 C 84.953125 121.398438 84.792969 121.015625 84.792969 120.617188 L 84.792969 106.378906 C 84.792969 105.980469 84.953125 105.597656 85.234375 105.3125 C 85.515625 105.03125 85.894531 104.871094 86.292969 104.871094 " fill-opacity="1" fill-rule="nonzero"/></g><g clip-path="url(#026722fc95)"><path fill="#000000" d="M 135.121094 115.714844 L 135.121094 215.464844 C 135.121094 215.863281 134.957031 216.242188 134.667969 216.523438 C 134.382812 216.804688 133.992188 216.960938 133.582031 216.960938 L 123.15625 216.960938 C 122.746094 216.960938 122.355469 216.804688 122.070312 216.523438 C 121.78125 216.242188 121.621094 215.863281 121.621094 215.464844 L 121.621094 115.714844 C 121.621094 115.316406 121.78125 114.9375 122.070312 114.65625 C 122.355469 114.375 122.746094 114.21875 123.15625 114.21875 L 133.582031 114.21875 C 133.992188 114.21875 134.382812 114.375 134.667969 114.65625 C 134.957031 114.9375 135.121094 115.316406 135.121094 115.714844 " fill-opacity="1" fill-rule="nonzero"/></g><g clip-path="url(#2c33cb7993)"><path fill="#000000" d="M 204.503906 154.300781 L 204.503906 106.324219 C 204.503906 105.929688 204.660156 105.546875 204.941406 105.265625 C 205.222656 104.984375 205.605469 104.824219 206 104.824219 L 215.753906 104.824219 C 216.152344 104.824219 216.535156 104.984375 216.816406 105.265625 C 217.09375 105.546875 217.253906 105.929688 217.253906 106.324219 L 217.253906 154.300781 C 217.253906 154.699219 217.09375 155.078125 216.816406 155.363281 C 216.535156 155.644531 216.152344 155.800781 215.753906 155.800781 L 206 155.800781 C 205.605469 155.800781 205.222656 155.644531 204.941406 155.363281 C 204.660156 155.078125 204.503906 154.699219 204.503906 154.300781 " fill-opacity="1" fill-rule="nonzero"/></g><g clip-path="url(#202905f2be)"><path fill="#000000" d="M 147.65625 128.589844 L 208.375 128.589844 C 208.773438 128.589844 209.160156 128.746094 209.441406 129.027344 C 209.722656 129.308594 209.882812 129.6875 209.882812 130.085938 L 209.882812 142.089844 C 209.882812 142.488281 209.722656 142.867188 209.441406 143.148438 C 209.160156 143.429688 208.773438 143.589844 208.375 143.589844 L 147.65625 143.589844 C 147.257812 143.589844 146.875 143.429688 146.59375 143.148438 C 146.308594 142.867188 146.148438 142.488281 146.148438 142.089844 L 146.148438 130.085938 C 146.148438 129.6875 146.308594 129.308594 146.59375 129.027344 C 146.875 128.746094 147.257812 128.589844 147.65625 128.589844 " fill-opacity="1" fill-rule="nonzero"/></g><g clip-path="url(#7dc6ae49dd)"><path fill="#000000" d="M 161.113281 130.089844 L 161.113281 215.59375 C 161.113281 215.992188 160.957031 216.371094 160.675781 216.652344 C 160.394531 216.933594 160.011719 217.09375 159.613281 217.09375 L 146.867188 217.09375 C 146.46875 217.09375 146.085938 216.933594 145.804688 216.652344 C 145.523438 216.371094 145.363281 215.992188 145.363281 215.59375 L 145.363281 130.089844 C 145.363281 129.695312 145.523438 129.3125 145.804688 129.03125 C 146.085938 128.75 146.46875 128.59375 146.867188 128.59375 L 159.613281 128.59375 C 160.011719 128.59375 160.394531 128.75 160.675781 129.03125 C 160.957031 129.3125 161.113281 129.695312 161.113281 130.089844 " fill-opacity="1" fill-rule="nonzero"/></g><g clip-path="url(#55e2fa0dff)"><path fill="#000000" d="M 147.652344 203.703125 L 208.382812 203.703125 C 208.78125 203.703125 209.164062 203.859375 209.449219 204.144531 C 209.730469 204.425781 209.890625 204.808594 209.890625 205.210938 L 209.890625 215.695312 C 209.890625 216.09375 209.730469 216.476562 209.449219 216.761719 C 209.164062 217.042969 208.78125 217.203125 208.382812 217.203125 L 147.652344 217.203125 C 147.25 217.203125 146.867188 217.042969 146.585938 216.761719 C 146.304688 216.476562 146.144531 216.09375 146.144531 215.695312 L 146.144531 205.210938 C 146.144531 204.808594 146.304688 204.425781 146.585938 204.144531 C 146.867188 203.859375 147.25 203.703125 147.652344 203.703125 " fill-opacity="1" fill-rule="nonzero"/></g><g clip-path="url(#12a63fdd12)"><path fill="#000000" d="M 149.890625 212.632812 L 149.890625 216.382812 L 146.140625 216.382812 L 146.140625 212.632812 L 149.890625 212.632812 " fill-opacity="1" fill-rule="nonzero"/></g><g clip-path="url(#12213f4d23)"><path fill="#9c1198" d="M 141.507812 210.417969 C 136.539062 210.417969 132.511719 214.277344 132.511719 219.042969 C 132.511719 223.804688 136.539062 227.667969 141.507812 227.667969 C 146.476562 227.667969 150.503906 223.804688 150.503906 219.042969 C 150.503906 214.277344 146.476562 210.417969 141.507812 210.417969 " fill-opacity="1" fill-rule="nonzero"/></g><g clip-path="url(#f8eb6191aa)"><path fill="#ffffff" d="M 141.460938 211.726562 C 136.90625 211.726562 133.214844 215.253906 133.214844 219.601562 C 133.214844 223.953125 136.90625 227.476562 141.460938 227.476562 C 146.015625 227.476562 149.707031 223.953125 149.707031 219.601562 C 149.707031 215.253906 146.015625 211.726562 141.460938 211.726562 " fill-opacity="1" fill-rule="nonzero"/></g><g clip-path="url(#94b58b8d89)"><path fill="#ffffff" d="M 108.195312 217.132812 L 220.605469 217.132812 L 220.605469 228.382812 L 108.195312 228.382812 L 108.195312 217.132812 " fill-opacity="1" fill-rule="nonzero"/></g><g mask="url(#ca7840b087)"><g transform="matrix(1, 0, 0, 1, 37, 39)"><g clip-path="url(#cc5933a741)"><g clip-path="url(#08b89291c9)"><path fill="#ed48e9" d="M 116.175781 230.53125 C 52.714844 230.53125 1.050781 178.863281 1.050781 115.40625 C 1.050781 51.945312 52.714844 0.28125 116.175781 0.28125 C 179.632812 0.28125 231.300781 51.945312 231.300781 115.40625 C 231.300781 178.863281 179.632812 230.53125 116.175781 230.53125 Z M 116.175781 1.980469 C 53.621094 1.980469 2.75 52.851562 2.75 115.40625 C 2.75 177.957031 53.621094 228.828125 116.175781 228.828125 C 178.726562 228.828125 229.597656 177.957031 229.597656 115.40625 C 229.597656 52.851562 178.726562 1.980469 116.175781 1.980469 Z M 116.175781 1.980469 " fill-opacity="1" fill-rule="nonzero"/></g></g></g></g></svg>